<svg xmlns="http://www.w3.org/2000/svg" width="1100" height="700" viewBox="0 0 1100 700">
<rect width="100%" height="100%" fill="white"/>
<text x="550" y="35" font-family="Arial" font-size="24" text-anchor="middle">Average Latency (microseconds) by Goroutine Count</text>
<line x1="90" y1="70" x2="90" y2="610" stroke="black"/>
<line x1="90" y1="610" x2="1070" y2="610" stroke="black"/>
<line x1="90" y1="610.0" x2="1070" y2="610.0" stroke="#dddddd"/>
<text x="82" y="614.0" font-family="Arial" font-size="13" text-anchor="end">0</text>
<line x1="90" y1="502.0" x2="1070" y2="502.0" stroke="#dddddd"/>
<text x="82" y="506.0" font-family="Arial" font-size="13" text-anchor="end">2000</text>
<line x1="90" y1="394.0" x2="1070" y2="394.0" stroke="#dddddd"/>
<text x="82" y="398.0" font-family="Arial" font-size="13" text-anchor="end">4000</text>
<line x1="90" y1="286.0" x2="1070" y2="286.0" stroke="#dddddd"/>
<text x="82" y="290.0" font-family="Arial" font-size="13" text-anchor="end">6000</text>
<line x1="90" y1="178.0" x2="1070" y2="178.0" stroke="#dddddd"/>
<text x="82" y="182.0" font-family="Arial" font-size="13" text-anchor="end">8000</text>
<line x1="90" y1="70.0" x2="1070" y2="70.0" stroke="#dddddd"/>
<text x="82" y="74.0" font-family="Arial" font-size="13" text-anchor="end">10000</text>
<line x1="90.0" y1="610" x2="90.0" y2="616" stroke="black"/>
<text x="90.0" y="635" font-family="Arial" font-size="13" text-anchor="middle">1</text>
<line x1="253.3" y1="610" x2="253.3" y2="616" stroke="black"/>
<text x="253.3" y="635" font-family="Arial" font-size="13" text-anchor="middle">2</text>
<line x1="416.7" y1="610" x2="416.7" y2="616" stroke="black"/>
<text x="416.7" y="635" font-family="Arial" font-size="13" text-anchor="middle">4</text>
<line x1="580.0" y1="610" x2="580.0" y2="616" stroke="black"/>
<text x="580.0" y="635" font-family="Arial" font-size="13" text-anchor="middle">8</text>
<line x1="743.3" y1="610" x2="743.3" y2="616" stroke="black"/>
<text x="743.3" y="635" font-family="Arial" font-size="13" text-anchor="middle">16</text>
<line x1="906.7" y1="610" x2="906.7" y2="616" stroke="black"/>
<text x="906.7" y="635" font-family="Arial" font-size="13" text-anchor="middle">32</text>
<line x1="1070.0" y1="610" x2="1070.0" y2="616" stroke="black"/>
<text x="1070.0" y="635" font-family="Arial" font-size="13" text-anchor="middle">64</text>
<text x="550" y="675" font-family="Arial" font-size="16" text-anchor="middle">Goroutines</text>
<text transform="translate(25 350) rotate(-90)" font-family="Arial" font-size="16" text-anchor="middle">Average Latency (microseconds)</text>
<circle cx="90.0" cy="600.3" r="4" fill="#1f77b4"/>
<circle cx="253.3" cy="593.8" r="4" fill="#1f77b4"/>
<circle cx="416.7" cy="573.9" r="4" fill="#1f77b4"/>
<circle cx="580.0" cy="553.1" r="4" fill="#1f77b4"/>
<circle cx="743.3" cy="486.0" r="4" fill="#1f77b4"/>
<circle cx="906.7" cy="382.3" r="4" fill="#1f77b4"/>
<circle cx="1070.0" cy="150.8" r="4" fill="#1f77b4"/>
<path d="M 90.0 600.3 L 253.3 593.8 L 416.7 573.9 L 580.0 553.1 L 743.3 486.0 L 906.7 382.3 L 1070.0 150.8 " fill="none" stroke="#1f77b4" stroke-width="2"/>
<line x1="810" y1="90" x2="840" y2="90" stroke="#1f77b4" stroke-width="3"/>
<text x="850" y="95" font-family="Arial" font-size="14">cpu GOMAXPROCS=1</text>
<circle cx="90.0" cy="600.6" r="4" fill="#ff7f0e"/>
<circle cx="253.3" cy="601.0" r="4" fill="#ff7f0e"/>
<circle cx="416.7" cy="592.2" r="4" fill="#ff7f0e"/>
<circle cx="580.0" cy="578.7" r="4" fill="#ff7f0e"/>
<circle cx="743.3" cy="551.8" r="4" fill="#ff7f0e"/>
<circle cx="906.7" cy="494.3" r="4" fill="#ff7f0e"/>
<circle cx="1070.0" cy="416.2" r="4" fill="#ff7f0e"/>
<path d="M 90.0 600.6 L 253.3 601.0 L 416.7 592.2 L 580.0 578.7 L 743.3 551.8 L 906.7 494.3 L 1070.0 416.2 " fill="none" stroke="#ff7f0e" stroke-width="2"/>
<line x1="810" y1="114" x2="840" y2="114" stroke="#ff7f0e" stroke-width="3"/>
<text x="850" y="119" font-family="Arial" font-size="14">cpu GOMAXPROCS=2</text>
<circle cx="90.0" cy="601.2" r="4" fill="#2ca02c"/>
<circle cx="253.3" cy="601.1" r="4" fill="#2ca02c"/>
<circle cx="416.7" cy="595.4" r="4" fill="#2ca02c"/>
<circle cx="580.0" cy="577.2" r="4" fill="#2ca02c"/>
<circle cx="743.3" cy="544.9" r="4" fill="#2ca02c"/>
<circle cx="906.7" cy="509.7" r="4" fill="#2ca02c"/>
<circle cx="1070.0" cy="348.1" r="4" fill="#2ca02c"/>
<path d="M 90.0 601.2 L 253.3 601.1 L 416.7 595.4 L 580.0 577.2 L 743.3 544.9 L 906.7 509.7 L 1070.0 348.1 " fill="none" stroke="#2ca02c" stroke-width="2"/>
<line x1="810" y1="138" x2="840" y2="138" stroke="#2ca02c" stroke-width="3"/>
<text x="850" y="143" font-family="Arial" font-size="14">cpu GOMAXPROCS=4</text>
<circle cx="90.0" cy="608.1" r="4" fill="#d62728"/>
<circle cx="253.3" cy="606.9" r="4" fill="#d62728"/>
<circle cx="416.7" cy="605.9" r="4" fill="#d62728"/>
<circle cx="580.0" cy="601.4" r="4" fill="#d62728"/>
<circle cx="743.3" cy="596.1" r="4" fill="#d62728"/>
<circle cx="906.7" cy="580.9" r="4" fill="#d62728"/>
<circle cx="1070.0" cy="519.6" r="4" fill="#d62728"/>
<path d="M 90.0 608.1 L 253.3 606.9 L 416.7 605.9 L 580.0 601.4 L 743.3 596.1 L 906.7 580.9 L 1070.0 519.6 " fill="none" stroke="#d62728" stroke-width="2"/>
<line x1="810" y1="162" x2="840" y2="162" stroke="#d62728" stroke-width="3"/>
<text x="850" y="167" font-family="Arial" font-size="14">mixed GOMAXPROCS=1</text>
<circle cx="90.0" cy="608.1" r="4" fill="#9467bd"/>
<circle cx="253.3" cy="607.9" r="4" fill="#9467bd"/>
<circle cx="416.7" cy="605.1" r="4" fill="#9467bd"/>
<circle cx="580.0" cy="601.9" r="4" fill="#9467bd"/>
<circle cx="743.3" cy="594.3" r="4" fill="#9467bd"/>
<circle cx="906.7" cy="579.7" r="4" fill="#9467bd"/>
<circle cx="1070.0" cy="549.4" r="4" fill="#9467bd"/>
<path d="M 90.0 608.1 L 253.3 607.9 L 416.7 605.1 L 580.0 601.9 L 743.3 594.3 L 906.7 579.7 L 1070.0 549.4 " fill="none" stroke="#9467bd" stroke-width="2"/>
<line x1="810" y1="186" x2="840" y2="186" stroke="#9467bd" stroke-width="3"/>
<text x="850" y="191" font-family="Arial" font-size="14">mixed GOMAXPROCS=2</text>
<circle cx="90.0" cy="608.0" r="4" fill="#8c564b"/>
<circle cx="253.3" cy="607.5" r="4" fill="#8c564b"/>
<circle cx="416.7" cy="603.8" r="4" fill="#8c564b"/>
<circle cx="580.0" cy="602.1" r="4" fill="#8c564b"/>
<circle cx="743.3" cy="593.9" r="4" fill="#8c564b"/>
<circle cx="906.7" cy="577.3" r="4" fill="#8c564b"/>
<circle cx="1070.0" cy="548.5" r="4" fill="#8c564b"/>
<path d="M 90.0 608.0 L 253.3 607.5 L 416.7 603.8 L 580.0 602.1 L 743.3 593.9 L 906.7 577.3 L 1070.0 548.5 " fill="none" stroke="#8c564b" stroke-width="2"/>
<line x1="810" y1="210" x2="840" y2="210" stroke="#8c564b" stroke-width="3"/>
<text x="850" y="215" font-family="Arial" font-size="14">mixed GOMAXPROCS=4</text>
</svg>
