<svg xmlns="http://www.w3.org/2000/svg" width="1100" height="700" viewBox="0 0 1100 700">
<rect width="100%" height="100%" fill="white"/>
<text x="550" y="35" font-family="Arial" font-size="24" text-anchor="middle">Throughput (jobs/sec) by Goroutine Count</text>
<line x1="90" y1="70" x2="90" y2="610" stroke="black"/>
<line x1="90" y1="610" x2="1070" y2="610" stroke="black"/>
<line x1="90" y1="610.0" x2="1070" y2="610.0" stroke="#dddddd"/>
<text x="82" y="614.0" font-family="Arial" font-size="13" text-anchor="end">0</text>
<line x1="90" y1="502.0" x2="1070" y2="502.0" stroke="#dddddd"/>
<text x="82" y="506.0" font-family="Arial" font-size="13" text-anchor="end">10000</text>
<line x1="90" y1="394.0" x2="1070" y2="394.0" stroke="#dddddd"/>
<text x="82" y="398.0" font-family="Arial" font-size="13" text-anchor="end">20000</text>
<line x1="90" y1="286.0" x2="1070" y2="286.0" stroke="#dddddd"/>
<text x="82" y="290.0" font-family="Arial" font-size="13" text-anchor="end">30000</text>
<line x1="90" y1="178.0" x2="1070" y2="178.0" stroke="#dddddd"/>
<text x="82" y="182.0" font-family="Arial" font-size="13" text-anchor="end">40000</text>
<line x1="90" y1="70.0" x2="1070" y2="70.0" stroke="#dddddd"/>
<text x="82" y="74.0" font-family="Arial" font-size="13" text-anchor="end">50000</text>
<line x1="90.0" y1="610" x2="90.0" y2="616" stroke="black"/>
<text x="90.0" y="635" font-family="Arial" font-size="13" text-anchor="middle">1</text>
<line x1="253.3" y1="610" x2="253.3" y2="616" stroke="black"/>
<text x="253.3" y="635" font-family="Arial" font-size="13" text-anchor="middle">2</text>
<line x1="416.7" y1="610" x2="416.7" y2="616" stroke="black"/>
<text x="416.7" y="635" font-family="Arial" font-size="13" text-anchor="middle">4</text>
<line x1="580.0" y1="610" x2="580.0" y2="616" stroke="black"/>
<text x="580.0" y="635" font-family="Arial" font-size="13" text-anchor="middle">8</text>
<line x1="743.3" y1="610" x2="743.3" y2="616" stroke="black"/>
<text x="743.3" y="635" font-family="Arial" font-size="13" text-anchor="middle">16</text>
<line x1="906.7" y1="610" x2="906.7" y2="616" stroke="black"/>
<text x="906.7" y="635" font-family="Arial" font-size="13" text-anchor="middle">32</text>
<line x1="1070.0" y1="610" x2="1070.0" y2="616" stroke="black"/>
<text x="1070.0" y="635" font-family="Arial" font-size="13" text-anchor="middle">64</text>
<text x="550" y="675" font-family="Arial" font-size="16" text-anchor="middle">Goroutines</text>
<text transform="translate(25 350) rotate(-90)" font-family="Arial" font-size="16" text-anchor="middle">Throughput (jobs/sec)</text>
<circle cx="90.0" cy="550.0" r="4" fill="#1f77b4"/>
<circle cx="253.3" cy="542.7" r="4" fill="#1f77b4"/>
<circle cx="416.7" cy="550.4" r="4" fill="#1f77b4"/>
<circle cx="580.0" cy="542.3" r="4" fill="#1f77b4"/>
<circle cx="743.3" cy="546.6" r="4" fill="#1f77b4"/>
<circle cx="906.7" cy="543.1" r="4" fill="#1f77b4"/>
<circle cx="1070.0" cy="544.1" r="4" fill="#1f77b4"/>
<path d="M 90.0 550.0 L 253.3 542.7 L 416.7 550.4 L 580.0 542.3 L 743.3 546.6 L 906.7 543.1 L 1070.0 544.1 " fill="none" stroke="#1f77b4" stroke-width="2"/>
<line x1="810" y1="90" x2="840" y2="90" stroke="#1f77b4" stroke-width="3"/>
<text x="850" y="95" font-family="Arial" font-size="14">cpu GOMAXPROCS=1</text>
<circle cx="90.0" cy="548.2" r="4" fill="#ff7f0e"/>
<circle cx="253.3" cy="483.5" r="4" fill="#ff7f0e"/>
<circle cx="416.7" cy="489.5" r="4" fill="#ff7f0e"/>
<circle cx="580.0" cy="484.2" r="4" fill="#ff7f0e"/>
<circle cx="743.3" cy="480.5" r="4" fill="#ff7f0e"/>
<circle cx="906.7" cy="478.2" r="4" fill="#ff7f0e"/>
<circle cx="1070.0" cy="482.0" r="4" fill="#ff7f0e"/>
<path d="M 90.0 548.2 L 253.3 483.5 L 416.7 489.5 L 580.0 484.2 L 743.3 480.5 L 906.7 478.2 L 1070.0 482.0 " fill="none" stroke="#ff7f0e" stroke-width="2"/>
<line x1="810" y1="114" x2="840" y2="114" stroke="#ff7f0e" stroke-width="3"/>
<text x="850" y="119" font-family="Arial" font-size="14">cpu GOMAXPROCS=2</text>
<circle cx="90.0" cy="543.7" r="4" fill="#2ca02c"/>
<circle cx="253.3" cy="481.0" r="4" fill="#2ca02c"/>
<circle cx="416.7" cy="479.4" r="4" fill="#2ca02c"/>
<circle cx="580.0" cy="484.4" r="4" fill="#2ca02c"/>
<circle cx="743.3" cy="482.8" r="4" fill="#2ca02c"/>
<circle cx="906.7" cy="487.2" r="4" fill="#2ca02c"/>
<circle cx="1070.0" cy="485.3" r="4" fill="#2ca02c"/>
<path d="M 90.0 543.7 L 253.3 481.0 L 416.7 479.4 L 580.0 484.4 L 743.3 482.8 L 906.7 487.2 L 1070.0 485.3 " fill="none" stroke="#2ca02c" stroke-width="2"/>
<line x1="810" y1="138" x2="840" y2="138" stroke="#2ca02c" stroke-width="3"/>
<text x="850" y="143" font-family="Arial" font-size="14">cpu GOMAXPROCS=4</text>
<circle cx="90.0" cy="303.2" r="4" fill="#d62728"/>
<circle cx="253.3" cy="331.9" r="4" fill="#d62728"/>
<circle cx="416.7" cy="314.2" r="4" fill="#d62728"/>
<circle cx="580.0" cy="334.6" r="4" fill="#d62728"/>
<circle cx="743.3" cy="322.4" r="4" fill="#d62728"/>
<circle cx="906.7" cy="326.9" r="4" fill="#d62728"/>
<circle cx="1070.0" cy="326.3" r="4" fill="#d62728"/>
<path d="M 90.0 303.2 L 253.3 331.9 L 416.7 314.2 L 580.0 334.6 L 743.3 322.4 L 906.7 326.9 L 1070.0 326.3 " fill="none" stroke="#d62728" stroke-width="2"/>
<line x1="810" y1="162" x2="840" y2="162" stroke="#d62728" stroke-width="3"/>
<text x="850" y="167" font-family="Arial" font-size="14">mixed GOMAXPROCS=1</text>
<circle cx="90.0" cy="309.9" r="4" fill="#9467bd"/>
<circle cx="253.3" cy="87.2" r="4" fill="#9467bd"/>
<circle cx="416.7" cy="159.2" r="4" fill="#9467bd"/>
<circle cx="580.0" cy="125.5" r="4" fill="#9467bd"/>
<circle cx="743.3" cy="140.2" r="4" fill="#9467bd"/>
<circle cx="906.7" cy="123.7" r="4" fill="#9467bd"/>
<circle cx="1070.0" cy="157.0" r="4" fill="#9467bd"/>
<path d="M 90.0 309.9 L 253.3 87.2 L 416.7 159.2 L 580.0 125.5 L 743.3 140.2 L 906.7 123.7 L 1070.0 157.0 " fill="none" stroke="#9467bd" stroke-width="2"/>
<line x1="810" y1="186" x2="840" y2="186" stroke="#9467bd" stroke-width="3"/>
<text x="850" y="191" font-family="Arial" font-size="14">mixed GOMAXPROCS=2</text>
<circle cx="90.0" cy="314.6" r="4" fill="#8c564b"/>
<circle cx="253.3" cy="210.3" r="4" fill="#8c564b"/>
<circle cx="416.7" cy="257.8" r="4" fill="#8c564b"/>
<circle cx="580.0" cy="101.3" r="4" fill="#8c564b"/>
<circle cx="743.3" cy="131.8" r="4" fill="#8c564b"/>
<circle cx="906.7" cy="146.3" r="4" fill="#8c564b"/>
<circle cx="1070.0" cy="134.9" r="4" fill="#8c564b"/>
<path d="M 90.0 314.6 L 253.3 210.3 L 416.7 257.8 L 580.0 101.3 L 743.3 131.8 L 906.7 146.3 L 1070.0 134.9 " fill="none" stroke="#8c564b" stroke-width="2"/>
<line x1="810" y1="210" x2="840" y2="210" stroke="#8c564b" stroke-width="3"/>
<text x="850" y="215" font-family="Arial" font-size="14">mixed GOMAXPROCS=4</text>
</svg>
